<svg width="1024" height="1024" viewBox="0 0 1024 1024" fill="none" xmlns="http://www.w3.org/2000/svg" xmlns:xlink="http://www.w3.org/1999/xlink">
<rect width="1024" height="1024" fill="black"/>
<path d="M98 551.4H176.857V630.2H255.714V709H334.571V630.2H256.371V551.4H176.857V315H98V551.4ZM413.429 315V551.4H335.229V630.2H413.429V551.4H492.286V315H413.429Z" fill="white"/>
<path fill-rule="evenodd" clip-rule="evenodd" d="M610.571 630.2H531.714V393.8H610.571V630.2Z" fill="white"/>
<path d="M610.571 393.8H847.143V630.2H926V393.8H847.143V315H610.571V393.8Z" fill="white"/>
<path d="M847.143 393.8V630.2H610.571V709H847.143V630.2H926V393.8H847.143Z" fill="white"/>
<path fill-rule="evenodd" clip-rule="evenodd" d="M610.571 630.2V393.8H847.143V630.2H610.571Z" fill="url(#pattern0_160_147)"/>
<path d="M256.371 630.2H334.571H335.229V551.4H413.429V315H176.857V551.4H256.371V630.2Z" fill="url(#pattern1_160_147)"/>
<defs>
<pattern id="pattern0_160_147" patternUnits="userSpaceOnUse" patternTransform="matrix(410 0 0 545.858 98 315)" preserveAspectRatio="none" viewBox="0 0 410 545.858" width="1" height="1">
<use xlink:href="#pattern0_160_147_inner" transform="translate(0 -545.858)"/>
<g id="pattern0_160_147_inner">
<path d="M0 0H410V545.858H0V0Z" fill="white" fill-opacity="0.4"/>
<path d="M410 83.1641L17.25 545.857H0V529.829L410 46.8145V83.1641ZM410 130.335L57.291 545.857H26.4316L410 93.9805V130.335ZM410 177.501L97.3262 545.857H66.4717L410 141.151V177.501ZM410 224.674L137.368 545.857H106.509L410 188.318V224.674ZM410 271.841L177.406 545.857H146.551L410 235.491V271.841ZM410 319.012L217.445 545.857H186.587L410 282.657V319.012ZM410 366.176L257.48 545.857H226.628L410 329.829V366.176ZM410 413.354L297.527 545.857H266.663L410 376.993V413.354ZM410 460.521L337.563 545.857H306.709L410 424.171V460.521ZM410 507.693L377.605 545.857H346.745L410 471.338V507.693ZM410 545.857H386.787L410 518.511V545.857ZM410 35.9971L0 519.012V482.664L409.703 0H410V35.9971ZM0 471.847V435.492L369.662 0H400.521L0 471.847ZM0 424.676V388.323L329.623 0H360.479L0 424.676ZM0 377.506V341.153L289.584 0H320.44L0 377.506ZM0 330.337V293.988L249.548 0H280.401L0 330.337ZM0 283.172V246.817L209.508 0H240.367L0 283.172ZM0 236V199.649L169.47 0H200.326L0 236ZM0 188.832V152.476L129.427 0H160.288L0 188.832ZM0 141.659V105.311L89.3916 0H120.246L0 141.659ZM0 94.4932V58.1377L49.3496 0H80.21L0 94.4932ZM0 47.3213V10.9756L9.31641 0H40.168L0 47.3213ZM0 0.15918V0H0.135742L0 0.15918Z" fill="#1F1F1F"/>
</g>
</pattern><pattern id="pattern1_160_147" patternUnits="userSpaceOnUse" patternTransform="matrix(410 0 0 545.858 98 315)" preserveAspectRatio="none" viewBox="0 0 410 545.858" width="1" height="1">
<use xlink:href="#pattern1_160_147_inner" transform="translate(0 -545.858)"/>
<g id="pattern1_160_147_inner">
<path d="M0 0H410V545.858H0V0Z" fill="white" fill-opacity="0.4"/>
<path d="M410 83.1641L17.25 545.857H0V529.829L410 46.8145V83.1641ZM410 130.335L57.291 545.857H26.4316L410 93.9805V130.335ZM410 177.501L97.3262 545.857H66.4717L410 141.151V177.501ZM410 224.674L137.368 545.857H106.509L410 188.318V224.674ZM410 271.841L177.406 545.857H146.551L410 235.491V271.841ZM410 319.012L217.445 545.857H186.587L410 282.657V319.012ZM410 366.176L257.48 545.857H226.628L410 329.829V366.176ZM410 413.354L297.527 545.857H266.663L410 376.993V413.354ZM410 460.521L337.563 545.857H306.709L410 424.171V460.521ZM410 507.693L377.605 545.857H346.745L410 471.338V507.693ZM410 545.857H386.787L410 518.511V545.857ZM410 35.9971L0 519.012V482.664L409.703 0H410V35.9971ZM0 471.847V435.492L369.662 0H400.521L0 471.847ZM0 424.676V388.323L329.623 0H360.479L0 424.676ZM0 377.506V341.153L289.584 0H320.44L0 377.506ZM0 330.337V293.988L249.548 0H280.401L0 330.337ZM0 283.172V246.817L209.508 0H240.367L0 283.172ZM0 236V199.649L169.47 0H200.326L0 236ZM0 188.832V152.476L129.427 0H160.288L0 188.832ZM0 141.659V105.311L89.3916 0H120.246L0 141.659ZM0 94.4932V58.1377L49.3496 0H80.21L0 94.4932ZM0 47.3213V10.9756L9.31641 0H40.168L0 47.3213ZM0 0.15918V0H0.135742L0 0.15918Z" fill="#1F1F1F"/>
</g>
</pattern></defs>
</svg>
