<svg width="1024" height="1024" viewBox="0 0 1024 1024" fill="none" xmlns="http://www.w3.org/2000/svg" xmlns:xlink="http://www.w3.org/1999/xlink">
<rect width="1024" height="1024" fill="black"/>
<path d="M626.75 662H851.75V737H626.75V662Z" fill="white"/>
<path d="M626.75 287H851.75V362H626.75V287Z" fill="white"/>
<path d="M551.75 362H626.75V662H551.75V362Z" fill="white"/>
<path d="M851.75 362H926.75V662H851.75V362Z" fill="white"/>
<path d="M626.75 362H851.75V662H626.75V362Z" fill="url(#pattern0_139_145)"/>
<path d="M98 287H173V537H98V287Z" fill="white"/>
<path d="M398 287H473V537H398V287Z" fill="white"/>
<path d="M173 537H248V662H173V537Z" fill="white"/>
<path d="M323 537H398V662H323V537Z" fill="white"/>
<path d="M248 662H323V737H248V662Z" fill="white"/>
<path d="M398 287H173V537H248V662H323V537H398V287Z" fill="url(#pattern1_139_145)"/>
<defs>
<pattern id="pattern0_139_145" patternUnits="userSpaceOnUse" patternTransform="matrix(338 0 0 450 551.75 287)" preserveAspectRatio="none" viewBox="0 0 338 450" width="1" height="1">
<g id="pattern0_139_145_inner">
<path d="M0 0H338V450H0V0Z" fill="white" fill-opacity="0.4"/>
<path d="M338 66.6602L12.6084 450H0V436.787L338 38.5938V66.6602ZM338 105.548L45.6172 450H21.79L338 77.4775V105.548ZM338 144.431L78.623 450H54.7998L338 116.365V144.431ZM338 183.319L111.633 450H87.8057L338 155.249V183.319ZM338 222.203L144.639 450H120.814L338 194.137V222.203ZM338 261.091L177.647 450H153.82L338 233.021V261.091ZM338 299.973L210.652 450H186.829L338 271.908V299.973ZM338 338.866L243.666 450H219.834L338 310.79V338.866ZM338 377.75L276.672 450H252.848L338 349.683V377.75ZM338 416.638L309.682 450H285.854L338 388.566V416.638ZM338 450H318.863L338 427.454V450ZM338 27.7764L0 425.97V397.905L337.756 0H338V27.7764ZM0 387.088V359.017L304.746 0H328.574L0 387.088ZM0 348.199V320.131L271.739 0H295.564L0 348.199ZM0 309.313V281.244L238.73 0H262.557L0 309.313ZM0 270.427V242.361L205.726 0H229.548L0 270.427ZM0 231.544V203.475L172.717 0H196.543L0 231.544ZM0 192.657V164.591L139.711 0H163.534L0 192.657ZM0 153.772V125.701L106.7 0H130.528L0 153.772ZM0 114.884V86.8184L73.6943 0H97.5186L0 114.884ZM0 76.001V47.9297L40.6846 0H64.5127L0 76.001ZM0 37.1133V9.0498L7.68262 0H31.5039L0 37.1133Z" fill="#1F1F1F"/>
</g>
</pattern><pattern id="pattern1_139_145" patternUnits="userSpaceOnUse" patternTransform="matrix(338 0 0 450 98 287)" preserveAspectRatio="none" viewBox="0 0 338 450" width="1" height="1">
<g id="pattern1_139_145_inner">
<path d="M0 0H338V450H0V0Z" fill="white" fill-opacity="0.4"/>
<path d="M338 66.6602L12.6084 450H0V436.787L338 38.5938V66.6602ZM338 105.548L45.6172 450H21.79L338 77.4775V105.548ZM338 144.431L78.623 450H54.7998L338 116.365V144.431ZM338 183.319L111.633 450H87.8057L338 155.249V183.319ZM338 222.203L144.639 450H120.814L338 194.137V222.203ZM338 261.091L177.647 450H153.82L338 233.021V261.091ZM338 299.973L210.652 450H186.829L338 271.908V299.973ZM338 338.866L243.666 450H219.834L338 310.79V338.866ZM338 377.75L276.672 450H252.848L338 349.683V377.75ZM338 416.638L309.682 450H285.854L338 388.566V416.638ZM338 450H318.863L338 427.454V450ZM338 27.7764L0 425.97V397.905L337.756 0H338V27.7764ZM0 387.088V359.017L304.746 0H328.574L0 387.088ZM0 348.199V320.131L271.739 0H295.564L0 348.199ZM0 309.313V281.244L238.73 0H262.557L0 309.313ZM0 270.427V242.361L205.726 0H229.548L0 270.427ZM0 231.544V203.475L172.717 0H196.543L0 231.544ZM0 192.657V164.591L139.711 0H163.534L0 192.657ZM0 153.772V125.701L106.7 0H130.528L0 153.772ZM0 114.884V86.8184L73.6943 0H97.5186L0 114.884ZM0 76.001V47.9297L40.6846 0H64.5127L0 76.001ZM0 37.1133V9.0498L7.68262 0H31.5039L0 37.1133Z" fill="#1F1F1F"/>
</g>
</pattern></defs>
</svg>
